<svg width="44" height="44" viewBox="0 0 44 44" fill="none" xmlns="http://www.w3.org/2000/svg">
<path fill-rule="evenodd" clip-rule="evenodd" d="M29.171 2H14.8289C12.1662 2 10 4.17243 10 6.84259V37.1574C10 39.8277 12.1663 42 14.8289 42H29.171C31.8338 42 34 39.8271 34 37.1574V6.84259C34 4.17243 31.8337 2 29.171 2ZM31.1026 37.1575C31.1026 38.2437 30.2542 39.0945 29.171 39.0945H14.8289C13.7458 39.0945 12.8974 38.2437 12.8974 37.1575V34.3488H31.1026V37.1575ZM31.1026 31.4432H12.8974V11.104H31.1026V31.4432ZM31.1026 8.19849H12.8974V6.84259C12.8974 5.75641 13.7458 4.90555 14.8289 4.90555H29.171C30.2542 4.90555 31.1026 5.75641 31.1026 6.84259V8.19849Z" fill="#EAA581"/>
</svg>
